<svg xmlns="http://www.w3.org/2000/svg"><style>:root svg:not(:target){display:none}</style><svg viewBox="0 0 134 56" fill="none" id="advantages_cat-strong"><g clip-path="url(#advantages_cat-strong_0)"><path d="M123.118 5.75685C124.273 3.91994 125.807 2.35146 127.618 1.15685C128.618 0.456854 129.218 0.456854 129.818 1.75685C130.618 3.65685 131.318 5.65685 130.718 7.75685C130.609 8.11302 130.588 8.49045 130.658 8.85639C130.728 9.22234 130.886 9.56575 131.118 9.85685C131.718 10.6569 132.218 11.4569 132.718 12.1569C133.399 13.0206 133.84 14.0482 133.998 15.1364C134.156 16.2246 134.025 17.3352 133.618 18.3569C133.251 19.3487 133.182 20.4261 133.418 21.4569C133.618 22.4469 133.618 23.4668 133.418 24.4569C133.337 25.1983 133.037 25.8987 132.556 26.4688C132.075 27.0388 131.435 27.4524 130.718 27.6569C129.439 27.9002 128.298 28.6137 127.518 29.6569C127.424 29.8105 127.291 29.9372 127.134 30.0247C126.976 30.1123 126.799 30.1578 126.618 30.1569C125.418 30.3569 122.418 27.6569 122.418 26.4569V25.8569C122.518 22.2569 122.318 21.9569 119.018 20.4569C118.328 20.2133 117.709 19.8007 117.218 19.2569C116.618 18.4569 115.818 18.5569 114.918 18.8569C114.018 19.1569 113.518 19.7569 113.618 20.7569C113.92 23.1777 114.02 25.6194 113.918 28.0569C113.925 28.335 113.993 28.6083 114.118 28.8569C117.218 33.3569 118.418 38.6569 119.918 43.7569C121.118 47.6569 123.318 49.7569 127.318 50.0569C127.958 50.1079 128.594 50.2082 129.218 50.3569C130.04 50.4889 130.803 50.8644 131.41 51.4349C132.016 52.0054 132.437 52.7445 132.618 53.5569C133.318 55.6569 132.918 56.1569 130.818 56.1569H124.318C123.477 56.1994 122.652 55.9124 122.018 55.3569C121.006 54.5027 119.856 53.8265 118.618 53.3569C117.249 52.8516 116.065 51.9455 115.218 50.7569C114.047 49.1203 112.706 47.612 111.218 46.2569C108.418 43.3569 105.418 40.5569 102.818 37.5569C100.839 35.5127 99.6973 32.8012 99.6182 29.9569C99.6182 29.0569 99.4182 28.6569 98.4182 29.0569C98.1188 29.2468 97.7728 29.3506 97.4182 29.3569C94.6182 29.3569 93.2182 31.0569 92.2182 33.5569C91.3182 35.6569 90.1182 37.6569 89.0182 39.7569C88.3945 41.0714 88.0538 42.5023 88.0182 43.9569C88.0182 46.3569 88.6182 47.1569 90.8182 47.9569C92.2182 48.4569 93.5182 48.9569 94.2182 50.3569C95.0182 51.9569 94.8182 52.3569 93.1182 52.4569H86.3182C85.9262 52.4957 85.5319 52.4104 85.191 52.213C84.8501 52.0156 84.5798 51.7162 84.4182 51.3569L82.6182 48.3569C82.0876 47.5741 81.7479 46.6779 81.6264 45.7401C81.5048 44.8023 81.6048 43.849 81.9182 42.9569C82.351 41.2204 82.3852 39.4084 82.0182 37.6569C81.7662 36.437 81.7879 35.1764 82.0819 33.9659C82.3758 32.7554 82.9347 31.6252 83.7182 30.6569C84.3182 29.9569 84.3182 29.6569 83.3182 29.4569C79.2291 28.5882 75.2649 27.2108 71.5182 25.3569C71.4917 25.3569 71.4663 25.3463 71.4475 25.3276C71.4288 25.3088 71.4182 25.2834 71.4182 25.2569C68.2182 24.0569 67.6182 24.2569 66.7182 27.5569C65.9182 30.3569 65.1182 33.1569 64.5182 36.0569C63.8182 39.2569 64.6182 42.2569 65.6182 45.2569C66.0182 46.4569 67.2182 46.3569 68.1182 46.6569C70.1182 47.2569 71.8182 48.0569 72.6182 50.1569C73.3182 51.7569 73.2182 51.9569 71.5182 51.9569C69.8182 51.9569 68.1182 51.8569 66.3182 51.9569C64.7993 51.9844 63.3169 51.4902 62.1182 50.5569C57.3182 47.3569 55.9182 42.4569 55.5182 37.1569C55.3182 33.8569 53.5182 31.2569 51.4182 28.7569C51.0182 28.2569 50.6182 28.0569 50.0182 28.4569C47.8717 29.6404 45.6307 30.6439 43.3182 31.4569C38.4925 33.1608 34.2579 36.2153 31.1182 40.2569C29.9459 41.7318 29.1866 43.4919 28.9182 45.3569C28.6182 47.1569 29.1182 47.9569 30.9182 48.4569C32.7182 48.9569 33.6182 49.9569 33.8182 51.8569C33.9182 52.6569 33.6182 53.0569 32.8182 53.0569H24.7182C24.4531 53.0381 24.1965 52.9555 23.9702 52.8162C23.7438 52.6769 23.5545 52.485 23.4182 52.2569C22.1621 50.7016 21.4899 48.7558 21.5182 46.7569C21.4658 43.3018 21.7673 39.8505 22.4182 36.4569C22.5517 35.4405 22.9311 34.4721 23.5236 33.6357C24.1161 32.7992 24.9038 32.12 25.8182 31.6569C31.7182 28.8569 34.8182 23.5569 37.6182 18.0569C38.2182 16.9569 37.7182 16.7569 36.7182 16.8569C33.9196 17.2454 31.2679 18.3474 29.0182 20.0569C26.0724 22.2057 23.2975 24.5795 20.7182 27.1569C17.9679 29.9505 14.3209 31.6855 10.4182 32.0569C3.11823 32.4569 -0.28177 28.3569 0.0182299 21.7569C0.0852924 19.5065 0.933877 17.3496 2.41823 15.6569C2.93425 14.9879 3.63796 14.4878 4.4395 14.2207C5.24103 13.9535 6.10401 13.9313 6.91823 14.1569C8.41823 14.5569 8.81823 15.3569 8.21823 16.8569C7.91823 17.4569 7.51823 17.9569 7.21823 18.5569C6.78683 19.1698 6.44975 19.844 6.21823 20.5569C5.11823 23.5569 6.61823 25.6569 9.71823 25.9569C13.0182 26.2569 15.7182 24.8569 18.2182 22.8569C21.2302 20.4451 23.9189 17.6555 26.2182 14.5569C27.9375 12.2943 30.1023 10.4081 32.5791 9.01498C35.0558 7.62182 37.7918 6.75118 40.6182 6.45685C42.9182 6.15685 44.9182 5.15685 47.1182 4.55685C51.2327 3.30246 55.5172 2.69521 59.8182 2.75685C61.8103 2.83982 63.7948 2.46345 65.6182 1.65685C70.5182 -0.343146 75.6182 -0.343146 80.7182 0.656854C84.7182 1.45685 88.7182 2.45685 92.6182 3.45685C94.9392 3.88933 97.3257 3.82114 99.6182 3.25685C104.007 2.14439 108.496 1.47438 113.018 1.25685C115.981 1.11272 118.933 1.69639 121.618 2.95685C123.618 3.85685 123.618 3.85685 123.118 5.75685Z" fill="black"></path></g><defs><clipPath id="advantages_cat-strong_0"><rect width="134" height="56" fill="white"></rect></clipPath></defs></svg><svg viewBox="0 0 70 97" fill="none" id="advantages_cat-weight"><path d="M54.84 0H54.46C53.818 0.362938 53.307 0.919413 53 1.59C52.4377 2.67211 52.0047 3.81665 51.71 5C51.6468 5.35582 51.4671 5.68054 51.1992 5.92311C50.9313 6.16567 50.5903 6.31232 50.23 6.34C49.1279 6.52999 48.0837 6.96931 47.1773 7.62443C46.2709 8.27955 45.5262 9.13313 45 10.12C44.2766 11.4013 43.6579 12.739 43.15 14.12C41.73 17.8 40.64 21.6 39.3 25.31C38.67 27 38.64 27 36.74 27C34.47 27 34.63 26.65 34.6 29.15C34.6 29.94 34.84 30.34 35.68 30.3C35.94 30.3 36.33 30.17 36.43 30.51C36.53 30.85 36.19 31 35.99 31.2C34.8043 32.4036 33.3037 33.2492 31.66 33.64C29.76 34.15 27.82 34.55 25.97 35.17C21.22 36.76 16.83 38.98 13.41 42.74C11.4103 45.0754 9.80885 47.7242 8.67 50.58C5 59.22 3.22 68.32 1.84 77.51C1.19 81.82 0.73 86.15 0.38 90.51C0.2 92.65 0 94.82 0 97H33.33C33.3853 96.5599 33.3051 96.1133 33.1 95.72C32.7794 94.9221 32.2586 94.2204 31.5877 93.6827C30.9167 93.1449 30.1185 92.7892 29.27 92.65C28.57 92.49 28.49 92.28 28.92 91.73C29.6214 90.7939 30.159 89.7458 30.51 88.63C32.14 83.82 32.77 78.8 33.56 73.83C34.0063 70.0338 35.1739 66.3579 37 63C38.4244 60.5284 40.3243 58.3634 42.59 56.63C43.42 56 43.45 56 43.59 57.07C43.69 57.78 43.71 58.51 43.76 59.23C44.0601 63.9544 43.9999 68.6948 43.58 73.41C43.2024 77.0649 43.1522 80.7462 43.43 84.41C43.8275 88.6636 44.5869 92.8755 45.7 97H59C58.8264 95.9175 58.328 94.9132 57.5708 94.1203C56.8136 93.3274 55.8334 92.7833 54.76 92.56C53.5066 92.3608 52.2252 92.429 51 92.76C50.4 92.9 50.15 92.76 50.1 92.11C49.6863 86.8159 50.0229 81.4899 51.1 76.29C52.4338 70.287 53.4552 64.2189 54.16 58.11C54.4224 55.643 55.1992 53.2584 56.44 51.11C57.63 48.99 58.67 46.79 59.84 44.66C60.3045 43.8855 60.5841 43.0143 60.657 42.1141C60.7298 41.2139 60.594 40.3091 60.26 39.47C59.99 38.76 59.73 38.04 59.4 37.36C58.4 35.41 57.4 33.48 56.48 31.51C55.99 30.51 56.1 30.39 57.19 30.36C58.82 30.36 58.82 30.36 58.85 28.72C58.85 28.5 58.85 28.28 58.85 28.06C58.85 27.37 58.59 26.99 57.85 27.06C57.35 27.06 56.85 27.06 56.33 27.06C55.64 27.06 55.44 26.77 55.61 26.06C55.9473 24.9058 56.611 23.8737 57.5211 23.0877C58.4312 22.3018 59.549 21.7956 60.74 21.63C62.9557 21.4379 65.1878 21.5829 67.36 22.06C67.6107 22.139 67.8823 22.1161 68.1162 21.9963C68.3502 21.8766 68.5275 21.6695 68.61 21.42C69.01 20.42 69.45 19.42 69.9 18.42C70.002 18.2426 70.0471 18.0381 70.0292 17.8343C70.0113 17.6304 69.9313 17.437 69.8 17.28C66.6 13.22 63.13 9.43 58.4 7C58.1715 6.90163 57.9712 6.7476 57.8175 6.55196C57.6638 6.35633 57.5615 6.12531 57.52 5.88C57.2523 4.45051 56.8264 3.05525 56.25 1.72C55.9795 1.00861 55.4845 0.404782 54.84 0V0Z" fill="black"></path></svg><svg viewBox="0 0 32 12" fill="none" id="advantages_icon-arrow"><line y1="6" x2="18" y2="6" stroke="black" stroke-width="2"></line><path d="M24 6L17.25 11.1962L17.25 0.803848L24 6Z" fill="black"></path></svg><svg viewBox="0 0 26 29" fill="none" id="how-it-works_boil"><path d="M10.875 0C9.24375 0 7.975 1.35937 7.975 3.08125C7.975 4.80312 9.24375 6.1625 10.875 6.1625C12.5063 6.1625 13.775 4.80312 13.775 3.08125C13.775 1.35937 12.5063 0 10.875 0ZM10.875 1.17812C11.8719 1.17812 12.5969 2.02094 12.5969 3.08125C12.5969 4.07812 11.8084 4.98438 10.875 4.98438C9.87813 4.98438 9.15313 4.14156 9.15313 3.08125C9.15313 2.08437 9.9325 1.17812 10.875 1.17812ZM0 24.7406C0 25.9188 0.407813 26.9156 1.35938 27.7313C2.35625 28.5831 3.53438 28.5106 3.53438 28.5106H22.5656C23.345 28.5106 24.3781 28.13 25.1937 27.0606C26.0366 26.0638 25.9822 24.7044 25.9822 24.7044V7.48563C25.9822 7.05063 25.8734 6.8875 25.2391 6.8875C24.6047 6.8875 24.5503 7.15938 24.5503 7.47656V24.6953C24.5322 24.9944 24.4778 25.7828 23.8072 26.4172C23.0731 27.0425 22.3572 26.9609 22.3572 26.9609C22.3572 26.9609 4.23219 26.9609 3.32594 26.9338C2.98156 26.8703 2.41969 26.7434 1.87594 26.0275C1.36844 25.3025 1.46812 24.3962 1.46812 24.3962V7.1775C1.46812 6.71531 1.2325 6.54313 0.743125 6.54313C0.25375 6.54313 0 6.71531 0 7.12313V24.7406ZM16.3125 8.42813C15.225 8.66375 14.1375 8.80875 12.0531 10.7844C9.96875 12.7781 8.42813 12.6875 6.8875 12.5969C5.34688 12.5063 3.71563 11.0563 3.44375 10.6938C3.10844 10.3403 2.5375 10.5759 2.35625 10.8116C2.20219 11.0472 2.20219 11.455 2.465 11.8084C3.73375 12.9866 4.91188 13.8928 7.1775 14.0741C9.44312 14.2916 11.6181 13.2675 13.0681 11.8084C14.5181 10.3584 15.2431 10.0866 16.3306 9.90531C18.9587 9.48844 20.4994 10.5216 21.4056 11.1741C22.4025 12.2616 22.6744 11.9534 22.9462 11.6453C23.49 10.9294 22.7197 10.3766 21.8588 9.74219C20.0463 8.56406 18.3244 8.11094 16.3306 8.47344L16.3125 8.42813ZM7.25 15.5875C6.07188 15.5875 5.16562 16.5844 5.16562 17.8531C5.16562 19.1219 6.07188 20.1188 7.25 20.1188C8.42813 20.1188 9.33438 19.1219 9.33438 17.8531C9.33438 16.5844 8.42813 15.5875 7.25 15.5875ZM19.0312 16.3669C17.4906 16.3669 16.2219 17.7262 16.2219 19.3575C16.2219 20.9888 17.4906 22.3481 19.0312 22.3481C20.5719 22.3481 21.8406 20.9888 21.8406 19.3575C21.8406 17.7262 20.5719 16.3669 19.0312 16.3669ZM19.0312 17.8169C19.8288 17.8169 20.4813 18.5147 20.4813 19.3575C20.4813 20.2184 19.8288 20.8981 19.0312 20.8981C18.2337 20.8981 17.5812 20.2003 17.5812 19.3575C17.5812 18.4966 18.2337 17.8169 19.0312 17.8169Z" fill="white"></path></svg><svg viewBox="0 0 25 30" fill="none" id="how-it-works_eat"><path fill-rule="evenodd" clip-rule="evenodd" d="M18.6173 0.0761497C18.991 -0.0786313 19.4211 0.00692445 19.7071 0.292922C20.6156 1.20142 21.8038 3.17065 22.7659 6.21082C23.7373 9.28039 24.5 13.5081 24.5 19C24.5 19.5523 24.0523 20 23.5 20H20V29C20 29.5523 19.5523 30 19 30C18.4477 30 18 29.5523 18 29V1.00003C18 0.595567 18.2436 0.230931 18.6173 0.0761497ZM20 18H22.4912C22.4053 13.1836 21.7051 9.48755 20.8591 6.81424C20.5807 5.93457 20.2885 5.1715 20 4.51895V18Z" fill="white"></path><path fill-rule="evenodd" clip-rule="evenodd" d="M6 0C6.55228 0 7 0.447715 7 1V29C7 29.5523 6.55228 30 6 30C5.44772 30 5 29.5523 5 29V1C5 0.447715 5.44772 0 6 0Z" fill="white"></path><path fill-rule="evenodd" clip-rule="evenodd" d="M1.5 0C2.05228 0 2.5 0.447715 2.5 1V6.5C2.5 7.05686 2.69203 7.81518 3.20088 8.41656C3.68001 8.98281 4.51446 9.5 5.99993 9.5C6.55221 9.5 6.99993 9.94771 6.99993 10.5C6.99993 11.0523 6.55221 11.5 5.99993 11.5C3.98547 11.5 2.56995 10.7672 1.6741 9.70844C0.807973 8.68482 0.5 7.44314 0.5 6.5V1C0.5 0.447715 0.947715 0 1.5 0Z" fill="white"></path><path fill-rule="evenodd" clip-rule="evenodd" d="M10.5 0C9.94771 0 9.5 0.447715 9.5 1V6.5C9.5 7.05686 9.30797 7.81518 8.79912 8.41656C8.31999 8.98281 7.4854 9.5 5.99993 9.5C5.44765 9.5 5.00007 9.94771 5.00007 10.5C5.00007 11.0523 5.44765 11.5 5.99993 11.5C8.01439 11.5 9.43005 10.7672 10.3259 9.70844C11.192 8.68482 11.5 7.44314 11.5 6.5V1C11.5 0.447715 11.0523 0 10.5 0Z" fill="white"></path></svg><svg viewBox="0 0 26 31" fill="none" id="how-it-works_time"><path d="M5.53799 0C4.47504 0 4.47504 1.5831 5.53799 1.5831H12.1815V3.18731C5.37855 3.62002 0 9.41417 0 16.4854C0 20.4959 1.74325 24.1159 4.4963 26.5539C4.97463 26.976 5.03841 27.7254 4.60259 28.1897L3.07194 29.7412C2.32787 30.4272 3.43334 31.4931 4.10301 30.7438L6.10136 28.7069C6.45214 28.3692 6.97298 28.2847 7.4088 28.4958C9.12736 29.3397 11.0169 29.784 12.9341 29.795C14.8513 29.8059 16.7459 29.3833 18.4742 28.5591C18.8993 28.348 19.4308 28.4325 19.771 28.7702L21.7055 30.7438C22.3858 31.377 23.3638 30.4272 22.7472 29.7412L21.3016 28.2636C20.8552 27.8098 20.919 27.0605 21.4079 26.6277C22.8584 25.3585 24.0186 23.7959 24.8106 22.0447C25.6026 20.2936 26.0081 18.3944 25.9999 16.4748C25.9999 9.40362 20.5894 3.59891 13.7759 3.18731V1.5831H20.4194C21.4823 1.5831 21.4823 0 20.4194 0H5.53799ZM1.43499 16.4748C1.43499 9.94187 6.61158 4.65431 12.9999 4.65431C19.3777 4.65431 24.5543 9.94187 24.5543 16.4748C24.5543 23.0183 19.3777 28.3164 12.9999 28.3164C6.62221 28.3164 1.43499 23.0183 1.43499 16.4748ZM12.1921 8.37988C12.1921 7.28226 13.8503 7.28226 13.8503 8.37988V17.0131C13.8503 17.237 13.7607 17.4517 13.6012 17.6101C13.4418 17.7684 13.2255 17.8574 12.9999 17.8574C12.7875 17.8574 12.5836 17.7743 12.4324 17.6262C12.2812 17.478 12.1949 17.2767 12.1921 17.0658V8.37988ZM7.21746 10.9973C7.52475 10.9973 7.81945 10.8761 8.03673 10.6603C8.25402 10.4446 8.37608 10.152 8.37608 9.84688C8.37608 9.54178 8.25402 9.24918 8.03673 9.03344C7.81945 8.8177 7.52475 8.6965 7.21746 8.6965C6.93069 8.72386 6.66447 8.85633 6.47075 9.06805C6.27702 9.27977 6.16969 9.55556 6.16969 9.84161C6.16969 10.1277 6.27702 10.4034 6.47075 10.6152C6.66447 10.8269 6.93069 10.9593 7.21746 10.9867V10.9973ZM18.7718 10.9973C19.0791 10.9973 19.3738 10.8761 19.5911 10.6603C19.8083 10.4446 19.9304 10.152 19.9304 9.84688C19.9304 9.54178 19.8083 9.24918 19.5911 9.03344C19.3738 8.8177 19.0791 8.6965 18.7718 8.6965C18.485 8.72386 18.2188 8.85633 18.0251 9.06805C17.8313 9.27977 17.724 9.55556 17.724 9.84161C17.724 10.1277 17.8313 10.4034 18.0251 10.6152C18.2188 10.8269 18.485 10.9593 18.7718 10.9867V10.9973ZM8.37608 23.5882C8.37608 25.1185 6.05884 25.1185 6.05884 23.5882C6.05884 22.0579 8.37608 22.0579 8.37608 23.5882ZM12.9999 27.0288C13.1607 27.0441 13.3229 27.0259 13.4762 26.9754C13.6294 26.9248 13.7703 26.843 13.8899 26.7352C14.0094 26.6273 14.1049 26.4959 14.1703 26.3493C14.2356 26.2026 14.2694 26.044 14.2694 25.8837C14.2694 25.7233 14.2356 25.5648 14.1703 25.4181C14.1049 25.2715 14.0094 25.14 13.8899 25.0322C13.7703 24.9244 13.6294 24.8426 13.4762 24.792C13.3229 24.7414 13.1607 24.7232 12.9999 24.7386C12.7132 24.7659 12.4469 24.8984 12.2532 25.1101C12.0595 25.3219 11.9522 25.5976 11.9522 25.8837C11.9522 26.1697 12.0595 26.4455 12.2532 26.6572C12.4469 26.869 12.7132 27.0014 12.9999 27.0288ZM4.91085 16.6437C4.9263 16.8033 4.90797 16.9643 4.85704 17.1165C4.80611 17.2687 4.72371 17.4086 4.61511 17.5273C4.50651 17.646 4.37413 17.7408 4.22644 17.8057C4.07876 17.8706 3.91904 17.9041 3.75755 17.9041C3.59605 17.9041 3.43633 17.8706 3.28865 17.8057C3.14097 17.7408 3.00858 17.646 2.89998 17.5273C2.79138 17.4086 2.70898 17.2687 2.65805 17.1165C2.60712 16.9643 2.58879 16.8033 2.60424 16.6437C2.6318 16.3589 2.76522 16.0946 2.97845 15.9023C3.19169 15.7099 3.46945 15.6033 3.75755 15.6033C4.04564 15.6033 4.3234 15.7099 4.53664 15.9023C4.74987 16.0946 4.88329 16.3589 4.91085 16.6437ZM22.237 17.794C22.3978 17.8094 22.56 17.7912 22.7132 17.7406C22.8665 17.6901 23.0074 17.6082 23.127 17.5004C23.2465 17.3926 23.342 17.2611 23.4074 17.1145C23.4727 16.9679 23.5065 16.8093 23.5065 16.6489C23.5065 16.4886 23.4727 16.33 23.4074 16.1834C23.342 16.0367 23.2465 15.9053 23.127 15.7975C23.0074 15.6896 22.8665 15.6078 22.7132 15.5573C22.56 15.5067 22.3978 15.4885 22.237 15.5038C21.9502 15.5312 21.684 15.6637 21.4903 15.8754C21.2966 16.0871 21.1892 16.3629 21.1892 16.6489C21.1892 16.935 21.2966 17.2108 21.4903 17.4225C21.684 17.6342 21.9502 17.7667 22.237 17.794ZM19.9304 23.5987C19.9304 25.1185 17.6132 25.1185 17.6132 23.5882C17.6132 22.0579 19.9304 22.0579 19.9304 23.5882V23.5987Z" fill="white"></path></svg><svg viewBox="0 0 25 28" fill="none" id="how-it-works_useful"><path d="M24.7754 0.767C24.6751 0.317 24.2963 0 23.8641 0C23.8623 0 23.8604 0 23.8585 0C18.9207 0.033 6.91319 0.916 2.06538 8.38C-0.452747 12.258 -0.669309 17.293 1.42132 23.345C1.43725 23.392 1.47007 23.424 1.49163 23.467C0.744441 25.44 0.454754 26.753 0.447254 26.79C0.338504 27.33 0.661941 27.862 1.16819 27.978C1.23382 27.993 1.29944 28 1.36507 28C1.79725 28 2.18632 27.679 2.281 27.21C2.30069 27.108 4.68944 16.837 13.1344 10.832C13.5657 10.526 13.6819 9.905 13.3941 9.445C13.1063 8.985 12.5251 8.86 12.0938 9.168C7.30507 12.573 4.35569 17.176 2.62132 20.824C1.38007 16.246 1.70538 12.447 3.60757 9.519C7.351 3.755 16.2301 2.365 21.5898 2.071C20.4366 3.872 19.1766 7.174 19.1766 13C19.1766 16.12 18.3469 18.522 16.7119 20.14C14.0907 22.731 9.83257 22.974 6.71819 22.724C6.20069 22.679 5.75163 23.095 5.71225 23.646C5.67288 24.196 6.06007 24.676 6.57569 24.718C7.19913 24.769 7.86475 24.8 8.55663 24.8C11.7273 24.8 15.4257 24.137 17.986 21.606C20.0204 19.595 21.0516 16.7 21.0516 13.001C21.0516 3.902 24.2673 1.905 24.2832 1.896C24.6732 1.687 24.8776 1.219 24.7754 0.767Z" fill="white"></path></svg><svg viewBox="0 0 24 24" fill="none" id="menu_burger_mobile"><line y1="3" x2="24" y2="3" stroke="black" stroke-width="2"></line><line y1="11" x2="24" y2="11" stroke="black" stroke-width="2"></line><line y1="19" x2="24" y2="19" stroke="black" stroke-width="2"></line></svg><svg viewBox="0 0 20 20" fill="none" id="menu_close_mobile"><line y1="-0.75" x2="24.7577" y2="-0.75" transform="matrix(0.686589 -0.727046 0.686589 0.727046 2.00171 20)" stroke="black" stroke-width="1.5"></line><line y1="-0.75" x2="24.7577" y2="-0.75" transform="matrix(0.686589 0.727046 -0.686589 0.727046 1 2)" stroke="black" stroke-width="1.5"></line></svg><svg viewBox="0 0 28 22" fill="none" id="social_telegram"><path fill-rule="evenodd" clip-rule="evenodd" d="M23.4608 3.15291C23.6393 3.30222 23.7255 3.5349 23.6872 3.76448L21.0611 19.5214C21.0244 19.7411 20.8789 19.9273 20.6745 20.0159C20.47 20.1045 20.2346 20.0833 20.0493 19.9597L12.1708 14.7074C12.0177 14.6054 11.9145 14.4437 11.8862 14.2619C11.858 14.08 11.9074 13.8947 12.0223 13.751L14.633 10.4877L10.273 13.3944C10.077 13.525 9.82597 13.5407 9.61524 13.4353L4.36293 10.8092C4.12769 10.6915 3.98535 10.4449 4.0012 10.1824C4.01705 9.91983 4.18804 9.6921 4.43573 9.60364L22.8188 3.03826C23.038 2.95998 23.2822 3.00359 23.4608 3.15291ZM6.32626 10.3228L9.86168 12.0905L17.4231 7.0495C17.6925 6.86994 18.0525 6.91349 18.2712 7.1521C18.49 7.3907 18.5022 7.75314 18.3 8.00591L13.495 14.0121L19.9328 18.3039L22.2083 4.65058L6.32626 10.3228Z" fill="#666666"></path></svg><svg viewBox="0 0 35 28" fill="none" id="social_vkontakte"><g filter="url(#social_vkontakte_0)"><path d="M4 5.33876C4 4.48373 4.5151 4.02268 5.54531 3.95562L9.51515 3.98077C9.78158 3.98077 9.95921 4.10651 10.048 4.35799C10.4565 5.61538 10.9139 6.70094 11.4201 7.61465C11.9264 8.52835 12.588 9.58038 13.4051 10.7707C13.4761 10.9216 13.5916 10.997 13.7514 10.997C13.8758 10.997 13.9735 10.9384 14.0445 10.821L14.1244 10.5444L14.1511 6.19379C14.1511 5.89201 14.0756 5.69083 13.9246 5.59024C13.7736 5.48965 13.4939 5.4142 13.0853 5.36391C12.7656 5.31361 12.6058 5.12919 12.6058 4.81065C12.6058 4.74359 12.6146 4.69329 12.6324 4.65976C13.0054 3.57002 14.0711 3.02515 15.8296 3.02515L17.3216 3C17.9966 3 18.5561 3.15927 19.0001 3.47781C19.4442 3.79635 19.6662 4.29931 19.6662 4.98669V10.6953C19.7906 10.7791 19.906 10.821 20.0126 10.821C20.279 10.821 20.5099 10.6701 20.7053 10.3683C22.6592 7.78649 23.716 6.05966 23.8759 5.18787C23.8759 5.1711 23.8936 5.12919 23.9291 5.06213C24.0535 4.81065 24.2577 4.5927 24.5419 4.40828C24.8261 4.22387 25.0748 4.09813 25.288 4.03107C25.359 3.99753 25.4389 3.98077 25.5277 3.98077H29.6574L29.9239 4.00592C30.2791 4.00592 30.5544 4.16519 30.7498 4.48373C30.8209 4.58432 30.8697 4.69329 30.8964 4.81065C30.923 4.92801 30.9408 5.04536 30.9496 5.16272C30.9585 5.28008 30.963 5.34714 30.963 5.36391V5.53994C30.8386 6.22732 30.5233 6.9608 30.0171 7.74038C29.5109 8.51997 28.867 9.36243 28.0855 10.2678C27.304 11.1731 26.8155 11.7682 26.6201 12.0533C26.4603 12.2544 26.3803 12.4389 26.3803 12.6065C26.3803 12.7406 26.4514 12.8915 26.5935 13.0592L30.4834 17.6864C30.6965 17.9546 30.8031 18.248 30.8031 18.5666C30.8031 18.9522 30.6432 19.2707 30.3235 19.5222C30.0038 19.7737 29.6219 19.9162 29.1779 19.9497L28.7249 19.9749H24.6752C24.6574 19.9749 24.6219 19.979 24.5686 19.9874C24.5153 19.9958 24.4798 20 24.462 20C24.0712 20 23.7071 19.8407 23.3696 19.5222C23.2453 19.3881 22.4105 18.3989 20.8652 16.5547C20.7764 16.4374 20.652 16.3284 20.4922 16.2278C20.4211 16.4961 20.3279 16.8817 20.2124 17.3846C20.097 17.8876 20.0126 18.248 19.9593 18.466L19.8794 18.8935C19.7018 19.4803 19.3287 19.8323 18.7604 19.9497L18.3874 19.9749H15.7763C14.3021 19.9749 12.8322 19.3378 11.3669 18.0636C9.90148 16.7894 8.58264 15.1423 7.41034 13.122C6.23803 11.1018 5.14566 8.75049 4.13322 6.06805C4.04441 5.8501 4 5.607 4 5.33876ZM20.0126 11.8521C19.6396 11.8521 19.3021 11.7557 19.0001 11.5629C18.6982 11.3701 18.5472 11.106 18.5472 10.7707V4.98669C18.5472 4.65138 18.4584 4.41248 18.2808 4.26997C18.1032 4.12747 17.7923 4.05621 17.3483 4.05621L15.8296 4.10651C15.0658 4.10651 14.4886 4.23225 14.0978 4.48373C14.8793 4.8358 15.2701 5.40582 15.2701 6.19379V10.6198C15.2346 11.039 15.0569 11.3868 14.7372 11.6635C14.4175 11.9401 14.0623 12.0784 13.6715 12.0784C13.1386 12.0784 12.7301 11.8353 12.4459 11.3491C11.0605 9.37081 10.0303 7.4931 9.35529 5.71598L9.1155 5.06213L5.57195 5.03698C5.34104 5.03698 5.21227 5.04956 5.18562 5.0747C5.15898 5.09985 5.14566 5.1711 5.14566 5.28846C5.14566 5.43935 5.16342 5.59862 5.19895 5.76627L5.75845 7.17456C7.25048 10.8126 8.87127 13.6795 10.6208 15.7751C12.3704 17.8708 14.0889 18.9186 15.7763 18.9186H18.4406C18.5472 18.9186 18.6271 18.8893 18.6804 18.8306C18.7337 18.7719 18.7781 18.6588 18.8136 18.4911L18.8669 18.2396L19.3732 16.0266C19.5152 15.7249 19.6396 15.5237 19.7462 15.4231C19.9415 15.2387 20.1725 15.1465 20.4389 15.1465C20.8652 15.1465 21.3003 15.3895 21.7444 15.8757L24.0091 18.5917C24.1512 18.8097 24.3022 18.9186 24.462 18.9186H28.8581C29.391 18.9186 29.6574 18.7929 29.6574 18.5414C29.6574 18.4576 29.6308 18.3738 29.5775 18.2899L25.7142 13.7382C25.4123 13.3861 25.2613 13.0089 25.2613 12.6065C25.2613 12.2041 25.4034 11.8185 25.6876 11.4497C25.9185 11.1144 26.367 10.557 27.0331 9.77737C27.6992 8.99778 28.2809 8.26849 28.7782 7.5895C29.2756 6.9105 29.6042 6.29438 29.764 5.74112L29.8439 5.4142C29.8262 5.38067 29.8173 5.32618 29.8173 5.25074C29.8173 5.1753 29.8084 5.11243 29.7907 5.06213H25.6077C25.3412 5.16272 25.1281 5.31361 24.9682 5.51479L24.8084 5.9926C24.3643 7.14941 23.2009 8.93491 21.3181 11.3491C20.9451 11.6844 20.5099 11.8521 20.0126 11.8521Z" fill="#666666"></path></g><defs><filter id="social_vkontakte_0" x="-1" y="0" width="36" height="30" filterUnits="userSpaceOnUse" color-interpolation-filters="sRGB"><feFlood flood-opacity="0" result="BackgroundImageFix"></feFlood><feColorMatrix in="SourceAlpha" type="matrix" values="0 0 0 0 0 0 0 0 0 0 0 0 0 0 0 0 0 0 127 0" result="hardAlpha"></feColorMatrix><feOffset dy="4"></feOffset><feGaussianBlur stdDeviation="2"></feGaussianBlur><feComposite in2="hardAlpha" operator="out"></feComposite><feColorMatrix type="matrix" values="0 0 0 0 0 0 0 0 0 0 0 0 0 0 0 0 0 0 0.25 0"></feColorMatrix><feBlend mode="normal" in2="BackgroundImageFix" result="effect1_dropShadow_100920_50"></feBlend><feBlend mode="normal" in="SourceGraphic" in2="effect1_dropShadow_100920_50" result="shape"></feBlend></filter></defs></svg><svg viewBox="0 0 28 22" fill="none" id="social_youtube"><path d="M17.8509 10.7927L12.6145 7.30184C12.5159 7.23691 12.4016 7.19985 12.2837 7.19459C12.1657 7.18934 12.0486 7.21608 11.9446 7.27198C11.8406 7.32789 11.7537 7.41087 11.693 7.51215C11.6324 7.61343 11.6002 7.72924 11.6 7.84729V14.8291C11.6001 14.9481 11.6327 15.0648 11.6942 15.1667C11.7557 15.2686 11.8438 15.3518 11.9491 15.4073C12.0524 15.4631 12.1691 15.4895 12.2864 15.4837C12.4037 15.478 12.5172 15.4402 12.6145 15.3746L17.8509 11.8837C17.9409 11.8239 18.0148 11.7429 18.0658 11.6477C18.1169 11.5526 18.1436 11.4462 18.1436 11.3382C18.1436 11.2302 18.1169 11.1239 18.0658 11.0287C18.0148 10.9335 17.9409 10.8525 17.8509 10.7927ZM12.9091 13.6073V9.06911L16.3127 11.3382L12.9091 13.6073ZM25.3891 5.04366C25.2942 4.67547 25.1131 4.33511 24.8609 4.05061C24.6086 3.76611 24.2924 3.54561 23.9382 3.40729C20.2182 1.9782 14.2509 2.00002 14 2.00002C13.7491 2.00002 7.78182 1.9782 4.06182 3.40729C3.70764 3.54561 3.3914 3.76611 3.13914 4.05061C2.88689 4.33511 2.70584 4.67547 2.61091 5.04366C2.32727 6.11275 2 8.07638 2 11.3382C2 14.6 2.32727 16.5637 2.61091 17.6327C2.70584 18.0009 2.88689 18.3413 3.13914 18.6258C3.3914 18.9103 3.70764 19.1308 4.06182 19.2691C7.78182 20.6982 13.7491 20.6764 14 20.6764H14.0764C14.8291 20.6764 20.3927 20.6327 23.9382 19.2691C24.2924 19.1308 24.6086 18.9103 24.8609 18.6258C25.1131 18.3413 25.2942 18.0009 25.3891 17.6327C25.6727 16.5637 26 14.6 26 11.3382C26 8.07638 25.6727 6.11275 25.3891 5.04366ZM24.1236 17.3055C24.0807 17.472 23.999 17.6259 23.8853 17.7548C23.7715 17.8838 23.6289 17.984 23.4691 18.0473C19.9782 19.3891 14.0655 19.3673 14 19.3673C13.9345 19.3673 8.02182 19.3891 4.53091 18.0473C4.37107 17.984 4.22846 17.8838 4.11471 17.7548C4.00096 17.6259 3.91929 17.472 3.87636 17.3055C3.61455 16.3018 3.30909 14.4582 3.30909 11.3382C3.30909 8.2182 3.61455 6.37457 3.87636 5.37093C3.91929 5.20445 4.00096 5.05047 4.11471 4.92156C4.22846 4.79264 4.37107 4.69243 4.53091 4.62911C8.02182 3.28729 13.9345 3.30911 14 3.30911C14.0655 3.30911 19.9782 3.28729 23.4691 4.62911C23.6289 4.69243 23.7715 4.79264 23.8853 4.92156C23.999 5.05047 24.0807 5.20445 24.1236 5.37093C24.3855 6.37457 24.6909 8.2182 24.6909 11.3382C24.6909 14.4582 24.3855 16.3018 24.1236 17.3055Z" fill="#666666"></path></svg></svg>