<svg width="35" height="28" viewBox="0 0 35 28" fill="none" xmlns="http://www.w3.org/2000/svg">
<g filter="url(#filter0_d_100920_50)">
<path d="M4 5.33876C4 4.48373 4.5151 4.02268 5.54531 3.95562L9.51515 3.98077C9.78158 3.98077 9.95921 4.10651 10.048 4.35799C10.4565 5.61538 10.9139 6.70094 11.4201 7.61465C11.9264 8.52835 12.588 9.58038 13.4051 10.7707C13.4761 10.9216 13.5916 10.997 13.7514 10.997C13.8758 10.997 13.9735 10.9384 14.0445 10.821L14.1244 10.5444L14.1511 6.19379C14.1511 5.89201 14.0756 5.69083 13.9246 5.59024C13.7736 5.48965 13.4939 5.4142 13.0853 5.36391C12.7656 5.31361 12.6058 5.12919 12.6058 4.81065C12.6058 4.74359 12.6146 4.69329 12.6324 4.65976C13.0054 3.57002 14.0711 3.02515 15.8296 3.02515L17.3216 3C17.9966 3 18.5561 3.15927 19.0001 3.47781C19.4442 3.79635 19.6662 4.29931 19.6662 4.98669V10.6953C19.7906 10.7791 19.906 10.821 20.0126 10.821C20.279 10.821 20.5099 10.6701 20.7053 10.3683C22.6592 7.78649 23.716 6.05966 23.8759 5.18787C23.8759 5.1711 23.8936 5.12919 23.9291 5.06213C24.0535 4.81065 24.2577 4.5927 24.5419 4.40828C24.8261 4.22387 25.0748 4.09813 25.288 4.03107C25.359 3.99753 25.4389 3.98077 25.5277 3.98077H29.6574L29.9239 4.00592C30.2791 4.00592 30.5544 4.16519 30.7498 4.48373C30.8209 4.58432 30.8697 4.69329 30.8964 4.81065C30.923 4.92801 30.9408 5.04536 30.9496 5.16272C30.9585 5.28008 30.963 5.34714 30.963 5.36391V5.53994C30.8386 6.22732 30.5233 6.9608 30.0171 7.74038C29.5109 8.51997 28.867 9.36243 28.0855 10.2678C27.304 11.1731 26.8155 11.7682 26.6201 12.0533C26.4603 12.2544 26.3803 12.4389 26.3803 12.6065C26.3803 12.7406 26.4514 12.8915 26.5935 13.0592L30.4834 17.6864C30.6965 17.9546 30.8031 18.248 30.8031 18.5666C30.8031 18.9522 30.6432 19.2707 30.3235 19.5222C30.0038 19.7737 29.6219 19.9162 29.1779 19.9497L28.7249 19.9749H24.6752C24.6574 19.9749 24.6219 19.979 24.5686 19.9874C24.5153 19.9958 24.4798 20 24.462 20C24.0712 20 23.7071 19.8407 23.3696 19.5222C23.2453 19.3881 22.4105 18.3989 20.8652 16.5547C20.7764 16.4374 20.652 16.3284 20.4922 16.2278C20.4211 16.4961 20.3279 16.8817 20.2124 17.3846C20.097 17.8876 20.0126 18.248 19.9593 18.466L19.8794 18.8935C19.7018 19.4803 19.3287 19.8323 18.7604 19.9497L18.3874 19.9749H15.7763C14.3021 19.9749 12.8322 19.3378 11.3669 18.0636C9.90148 16.7894 8.58264 15.1423 7.41034 13.122C6.23803 11.1018 5.14566 8.75049 4.13322 6.06805C4.04441 5.8501 4 5.607 4 5.33876ZM20.0126 11.8521C19.6396 11.8521 19.3021 11.7557 19.0001 11.5629C18.6982 11.3701 18.5472 11.106 18.5472 10.7707V4.98669C18.5472 4.65138 18.4584 4.41248 18.2808 4.26997C18.1032 4.12747 17.7923 4.05621 17.3483 4.05621L15.8296 4.10651C15.0658 4.10651 14.4886 4.23225 14.0978 4.48373C14.8793 4.8358 15.2701 5.40582 15.2701 6.19379V10.6198C15.2346 11.039 15.0569 11.3868 14.7372 11.6635C14.4175 11.9401 14.0623 12.0784 13.6715 12.0784C13.1386 12.0784 12.7301 11.8353 12.4459 11.3491C11.0605 9.37081 10.0303 7.4931 9.35529 5.71598L9.1155 5.06213L5.57195 5.03698C5.34104 5.03698 5.21227 5.04956 5.18562 5.0747C5.15898 5.09985 5.14566 5.1711 5.14566 5.28846C5.14566 5.43935 5.16342 5.59862 5.19895 5.76627L5.75845 7.17456C7.25048 10.8126 8.87127 13.6795 10.6208 15.7751C12.3704 17.8708 14.0889 18.9186 15.7763 18.9186H18.4406C18.5472 18.9186 18.6271 18.8893 18.6804 18.8306C18.7337 18.7719 18.7781 18.6588 18.8136 18.4911L18.8669 18.2396L19.3732 16.0266C19.5152 15.7249 19.6396 15.5237 19.7462 15.4231C19.9415 15.2387 20.1725 15.1465 20.4389 15.1465C20.8652 15.1465 21.3003 15.3895 21.7444 15.8757L24.0091 18.5917C24.1512 18.8097 24.3022 18.9186 24.462 18.9186H28.8581C29.391 18.9186 29.6574 18.7929 29.6574 18.5414C29.6574 18.4576 29.6308 18.3738 29.5775 18.2899L25.7142 13.7382C25.4123 13.3861 25.2613 13.0089 25.2613 12.6065C25.2613 12.2041 25.4034 11.8185 25.6876 11.4497C25.9185 11.1144 26.367 10.557 27.0331 9.77737C27.6992 8.99778 28.2809 8.26849 28.7782 7.5895C29.2756 6.9105 29.6042 6.29438 29.764 5.74112L29.8439 5.4142C29.8262 5.38067 29.8173 5.32618 29.8173 5.25074C29.8173 5.1753 29.8084 5.11243 29.7907 5.06213H25.6077C25.3412 5.16272 25.1281 5.31361 24.9682 5.51479L24.8084 5.9926C24.3643 7.14941 23.2009 8.93491 21.3181 11.3491C20.9451 11.6844 20.5099 11.8521 20.0126 11.8521Z" fill="#666666"/>
</g>
<defs>
<filter id="filter0_d_100920_50" x="-1" y="0" width="36" height="30" filterUnits="userSpaceOnUse" color-interpolation-filters="sRGB">
<feFlood flood-opacity="0" result="BackgroundImageFix"/>
<feColorMatrix in="SourceAlpha" type="matrix" values="0 0 0 0 0 0 0 0 0 0 0 0 0 0 0 0 0 0 127 0" result="hardAlpha"/>
<feOffset dy="4"/>
<feGaussianBlur stdDeviation="2"/>
<feComposite in2="hardAlpha" operator="out"/>
<feColorMatrix type="matrix" values="0 0 0 0 0 0 0 0 0 0 0 0 0 0 0 0 0 0 0.25 0"/>
<feBlend mode="normal" in2="BackgroundImageFix" result="effect1_dropShadow_100920_50"/>
<feBlend mode="normal" in="SourceGraphic" in2="effect1_dropShadow_100920_50" result="shape"/>
</filter>
</defs>
</svg>
